<svg width="193" height="142" viewBox="0 0 193 142" fill="none" xmlns="http://www.w3.org/2000/svg">
<path d="M56.4995 85C62.9995 86.0001 55.9995 97 55.9995 97C55.9995 97 59.8007 92.4194 62.9995 90.5C65.4995 89 67.3495 88.325 68.9995 90C70.5068 91.5302 70.2883 93.7817 68.9995 95.5C67.4995 97.5 59.4996 101.5 59.4996 101.5C59.4996 101.5 62.9996 102.5 64.4995 105C65.6993 107 68.9996 119.5 64.4995 122C62.3099 123.217 54.4293 120.781 55.4996 116.5C56.4432 112.725 58.9997 109 58.4996 107.5C57.8327 105.5 54.9995 105 54.9995 105C54.9995 105 55.9701 111.821 53.9996 114.5C51.9996 117.218 49.6936 117.465 46.4995 116.5C43.4338 115.574 41.4995 113.702 41.4995 110.5C41.4995 106 47.2869 102.925 49.9995 97.5C51.9995 93.5 49.9995 84 56.4995 85Z" fill="white"/>
<path d="M83.9994 92.4998C90.4992 93.3127 89.3502 102.278 91.4994 108C93.7529 114 94.9994 120 94.9994 122C94.9994 124.061 93.8675 125.816 92.4994 126.5C91.4995 127 86.0882 126.407 84.4994 125.5C80.9997 123.5 85.7976 111.65 84.4994 111C82.9277 110.214 82.571 110.214 80.9994 111C79.9995 111.5 82.499 118.5 80.9994 122.5C79.4997 126.5 77.9994 125 75.9994 125C73.4499 125 70.6656 125.5 68.9994 123C67.3335 120.5 70.9996 114.5 73.9994 109C77.6074 102.385 79.9995 91.9997 83.9994 92.4998ZM83.9994 97.9998C82.9994 98.0003 80.9998 104 81.4994 105C82.0001 106 85.0017 106.492 85.4994 104.999C85.9992 103.498 85.4992 97.9992 83.9994 97.9998Z" fill="white"/>
<path d="M111.999 94.9985C111.999 99.4985 105 97.4987 104.999 98.9985C104.999 101.284 108 100.5 110 101C112 101.5 113.082 104.134 112 106C110.76 108.136 107.475 106.518 105.5 108C103.5 109.5 111.5 116 111.5 120.5C111.5 125 108 125.5 104.499 125.998C100.417 126.58 97.4232 124.888 96.9994 121.498C96.4995 117.5 98.088 113.784 97.9996 108.499C97.9275 104.186 96.9996 100.694 96.9996 97.9998C96.9996 95.4998 98.9997 93.5005 102.5 92.9998C106.064 92.4899 112 91.9989 111.999 94.9985Z" fill="white"/>
<path d="M120.432 96.9355C120.253 95.2805 127.556 97.0013 127.153 93.277C126.861 90.5875 123.661 90.2031 120.956 90.1803C117.968 90.1552 114.521 91.1456 112.938 97.3273C112.055 100.774 111.821 102.472 113.455 109.831C114.819 115.973 117.9 121.797 123 122.5C126 122.914 132.653 121.5 134 118C136.5 111.5 132.5 106.5 127.849 107.436C125.808 107.847 123.521 109.998 122.156 105.122C121.305 102.083 128.801 104.631 128.284 99.8531C127.791 95.3015 120.656 99.0046 120.432 96.9355Z" fill="white"/>
<path d="M31.7575 16.1743C53.2572 11.3969 60.7576 22.6741 70.2575 23.6743C79.7573 24.6742 86.8276 15.1743 99.7575 15.1743C125.257 15.1745 125.758 27.1743 135.258 27.1743C143.257 27.174 145.25 18.6743 161.258 18.6743C182.757 18.6746 192.258 37.6744 192.258 49.6743C192.258 64.1742 180.757 77.6741 168.758 79.6743C154.248 82.0925 151.267 94.6344 151.258 94.6743C151.258 94.6743 146.257 86.6745 138.258 85.1743C130.258 83.6744 120.271 85.5605 108.758 85.1743C87.9798 84.4774 73.2575 79.1745 63.2575 79.1743C40.8024 79.1743 31.7933 96.1069 31.7575 96.1743C-15.7425 80.6743 -5.09589 24.3639 31.7575 16.1743ZM34.3884 38.0005C27.3714 37.9987 30.3873 50.9982 29.3884 51.0005C28.3886 51.0005 22.3892 43.003 18.8894 43.5025C11.8896 44.5025 15.8891 55.0044 18.8884 62.0025C21.8875 69.0004 20.8886 79.5022 24.3884 80.5025C27.8883 81.5024 37.8879 80.0021 36.8884 72.5025C35.8884 65.0025 18.889 53.5025 21.8884 53.0005C24.8876 52.499 29.3886 63.0014 33.3884 61.0025C37.3881 59.0026 34.3892 47.5042 35.8884 47.5025C37.8883 47.5025 36.9778 56.0768 37.8884 61.4995C38.5163 65.2385 38.3568 70.7238 41.3884 73.0005C43.3883 74.5023 45.5566 74.3648 48.8884 73.0005C50.8885 72.1815 53.5318 71.169 53.8884 67.5025C54.44 61.8265 47.2784 58.6802 44.8884 53.5025C41.8884 47.0025 41.3884 38.0026 34.3884 38.0005ZM115.499 47.0005C110.932 47.1815 112.701 53.5906 111.499 58.0005C109.999 63.5006 107.5 68.0006 107.5 72.0005C107.5 77.0005 110.095 78.0005 114 78.0005C117.905 78.0005 120.102 78.3256 122 76.0005C123.897 73.6751 120.998 62.5008 119.999 58.0005C118.999 53.5002 120.136 46.817 115.499 47.0005ZM135.001 39.0015C131.435 38.5849 127.19 39.3217 124.5 46.4995C123 50.5016 122.5 52.4999 123.5 61.4995C124.334 69.0117 127.501 76.0016 133.501 77.5015C138 78.6261 143.737 77.5013 145.501 74.5015C150.5 66.0001 146.523 60.505 141.001 60.5015C138.5 60.5 135.501 63.0014 134.501 57.0015C133.877 53.2618 142.501 57.2742 142.501 51.5015C142.501 46.0018 133.501 49.5014 133.501 47.0015C133.501 45.0017 142.001 48.0015 142.001 43.5015C142.001 40.2518 138.228 39.3786 135.001 39.0015ZM90.9997 33.9995C85.9998 33.9995 86.4996 40.9998 85.4997 46.4995C84.1314 54.0249 77.9998 57.8406 77.9997 65.9995C77.9997 70.4998 80.4457 70.987 84.4997 72.0005C86.4997 72.5004 88.9586 72.4868 93.4997 74.0005C99.4993 76.0003 102 75.0002 104 71.0005C105.414 68.1722 104.8 65.1009 103 63.0005C99.9997 59.5005 93.4998 62.4998 91.4997 60.4995C88.7387 57.7384 93.4209 43.394 94.4997 38.0005C94.9997 35.5006 93.6117 33.9996 90.9997 33.9995ZM164.001 38.0005C164.384 34.5622 159.779 33.5486 155.5 34.5005C151 35.5015 145.767 38.6215 145.501 44.0015C145.319 47.6653 146 50.0007 150 52.5005C153.057 54.4111 160.999 57.0006 159.501 59.0005C158.712 60.0521 156.688 57.9225 155.001 57.5005C151.742 56.6858 148.816 57.7416 148.001 61.0005C146.501 67.0005 152.999 72.5014 160.001 72.5015C164.522 72.5015 174.001 72.0005 174.001 60.0005C174.001 54.3246 167.771 51.1085 162.501 49.0005C160.001 48.0005 152.001 47.0005 154.001 43.0005C155.119 40.7649 156.881 41.0016 159.501 41.0015C162 41.0014 163.74 40.3373 164.001 38.0005ZM64.0046 32.4947C55.4799 32.0655 51.7594 43.6165 52.4997 52.4995C52.9998 58.4995 56.5046 70.9947 65.5046 70.9947C75.0175 70.9944 78.0046 62.0033 77.5046 52.0034C77.2053 46.0195 74.0038 32.9986 64.0046 32.4947ZM63.9997 38.9995C67.9995 39.0003 70.4994 53.4988 65.0007 53.4995C59.5014 53.4995 59.9999 39.0004 63.9997 38.9995ZM116 38.5005C114.5 38.5005 112.182 40.0938 112.5 42.0005C112.776 43.6571 114.32 45.0282 116 44.9995C117.8 44.9687 119.5 44.1337 119.5 41.4995C119.499 39.6996 117.8 38.5006 116 38.5005Z" fill="white"/>
<path fill-rule="evenodd" clip-rule="evenodd" d="M152 103C152 103 155 114 137 125.5C119 137 109.5 139.5 90.0001 141C77.3784 141.971 59.3355 138.803 49.5001 134.5C41.5001 131 35.3246 124.675 32.0001 118.5C28.6756 112.325 29.4994 107 29.4994 107C29.4994 107 32.4995 121 44.9995 128C56.6607 134.53 66.4995 136.5 78.4995 137C96.5761 137.753 110.862 135.68 127 127.5C151.5 115.081 152 103 152 103Z" fill="white"/>
<circle cx="66.4995" cy="9.5" r="8.5" fill="white"/>
<circle cx="120" cy="5" r="5" fill="white"/>
</svg>
