<?xml version="1.0" encoding="UTF-8"?>
<svg version="1.1" xmlns="http://www.w3.org/2000/svg" width="559" height="213">
<path d="M0 0 C0.86818359 -0.01224609 1.73636719 -0.02449219 2.63085938 -0.03710938 C10.73941358 -0.05549612 17.36448159 1.55041033 24.0625 6.1875 C27.03218135 10.49832776 27.86564159 14.01169861 27.0625 19.1875 C24.32896475 24.04408097 20.71032606 28.0889493 16.0625 31.1875 C15.4025 31.1875 14.7425 31.1875 14.0625 31.1875 C14.0625 31.8475 14.0625 32.5075 14.0625 33.1875 C11.54181337 34.29200255 9.02095506 35.39611043 6.5 36.5 C5.79552734 36.80873047 5.09105469 37.11746094 4.36523438 37.43554688 C-0.060534 39.37309524 -4.49441335 41.28999256 -8.9375 43.1875 C-8.2775 44.8375 -7.6175 46.4875 -6.9375 48.1875 C-6.2775 48.1875 -5.6175 48.1875 -4.9375 48.1875 C-1.9375 51.64903846 -1.9375 51.64903846 -1.9375 54.1875 C-1.2775 54.1875 -0.6175 54.1875 0.0625 54.1875 C1.6875 55.5625 1.6875 55.5625 3.0625 57.1875 C3.0625 57.8475 3.0625 58.5075 3.0625 59.1875 C4.62409059 59.66962214 6.18681928 60.14805873 7.75 60.625 C8.62011719 60.89183594 9.49023438 61.15867188 10.38671875 61.43359375 C17.82355432 63.52893574 22.07235031 62.54718457 29.0625 59.1875 C32.50822091 56.81659111 35.29827344 54.16254768 37.875 50.875 C41.45235157 48.11532879 45.65792989 48.35561336 50.0625 48.1875 C48.515625 47.56875 48.515625 47.56875 46.9375 46.9375 C38.44518791 43.22211346 34.52752696 38.58708286 30.75 30.3125 C29.0332883 22.50926499 29.60149339 16.50281822 33.49609375 9.45703125 C36.51886055 5.07741153 39.99621964 1.87626012 45.0625 0.1875 C54.12267501 -0.46503338 61.2428236 0.57148911 69.4609375 4.265625 C72.33098585 5.28263913 74.64874712 5.5206439 77.6875 5.5625 C79.09902344 5.60503906 79.09902344 5.60503906 80.5390625 5.6484375 C83.21726613 5.43818556 83.21726613 5.43818556 84.73046875 3.1796875 C85.17003906 2.52226563 85.60960937 1.86484375 86.0625 1.1875 C88.75 0.9375 88.75 0.9375 91.0625 1.1875 C91.66450582 8.65237211 90.33821622 13.95395583 86.0625 20.1875 C83.12365138 22.7532526 80.93122614 23.65017693 77.0625 24.1875 C78.073125 24.6825 79.08375 25.1775 80.125 25.6875 C86.14570337 29.12615376 91.03495384 34.50625266 93.0625 41.1875 C94.0197727 52.28937685 93.12229956 61.14213181 86.0625 70.1875 C84.5775 70.6825 84.5775 70.6825 83.0625 71.1875 C83.0625 71.8475 83.0625 72.5075 83.0625 73.1875 C75.34429464 76.74974863 67.62866647 77.68331315 59.4375 75 C57.51868648 73.96952607 55.60328933 72.9324673 53.69921875 71.875 C48.09982363 68.88412431 44.42514457 67.59836624 38.0625 68.1875 C37.4025 70.4975 36.7425 72.8075 36.0625 75.1875 C34.4125 75.1875 32.7625 75.1875 31.0625 75.1875 C30.5675 71.7225 30.5675 71.7225 30.0625 68.1875 C29.36125 68.59742188 28.66 69.00734375 27.9375 69.4296875 C26.98875 69.96851563 26.04 70.50734375 25.0625 71.0625 C24.134375 71.59617187 23.20625 72.12984375 22.25 72.6796875 C11.15504099 77.92803821 -3.97364857 78.16137303 -15.625 74.5625 C-26.70140208 70.08513747 -34.56567389 63.26912903 -39.375 52.1875 C-42.56080227 42.38184885 -42.58881406 30.55413373 -38.078125 21.19921875 C-35.50451739 16.66015054 -32.90704022 12.62776819 -28.9375 9.1875 C-28.2775 9.1875 -27.6175 9.1875 -26.9375 9.1875 C-26.6075 8.1975 -26.2775 7.2075 -25.9375 6.1875 C-23.86328125 4.8359375 -23.86328125 4.8359375 -21.25 3.5625 C-20.40050781 3.13710937 -19.55101562 2.71171875 -18.67578125 2.2734375 C-12.60614319 -0.13363722 -6.43373129 0.00475516 0 0 Z M46.0625 6.1875 C46.01632909 9.01750856 46.01632909 9.01750856 47.0625 12.1875 C52.60649356 17.47949385 59.65232701 19.59146274 67.0625 21.1875 C67.7225 20.8575 68.3825 20.5275 69.0625 20.1875 C68.0415625 19.1975 68.0415625 19.1975 67 18.1875 C64.05775742 15.26202233 61.38787685 12.12454094 58.7109375 8.95703125 C56.23091936 6.29483168 54.66495984 5.2243853 51 5 C48.12936667 4.99184575 48.12936667 4.99184575 46.0625 6.1875 Z M-20.4375 9.0625 C-22.6993885 13.77476772 -22.29902604 17.19960173 -20.9375 22.1875 C-19.95560184 24.77195637 -18.82884345 27.26192977 -17.625 29.75 C-17.32940186 30.3699585 -17.03380371 30.98991699 -16.72924805 31.62866211 C-15.44061902 34.12075315 -14.49060022 35.89280644 -11.97265625 37.234375 C-9.28858743 37.17255384 -7.92111044 36.34339205 -5.6875 34.875 C-4.98109375 34.42511719 -4.2746875 33.97523437 -3.546875 33.51171875 C-3.01578125 33.07472656 -2.4846875 32.63773438 -1.9375 32.1875 C-1.9375 31.5275 -1.9375 30.8675 -1.9375 30.1875 C-1.2775 30.1875 -0.6175 30.1875 0.0625 30.1875 C1.52055998 26.76105906 2.41046401 24.55833809 1.48046875 20.89453125 C-0.860857 15.32572061 -3.81172956 11.37553931 -8.8125 7.875 C-13.26095801 6.435793 -16.62705416 6.20466562 -20.4375 9.0625 Z M56.0625 50.1875 C56.41441406 50.64898437 56.76632812 51.11046875 57.12890625 51.5859375 C67.83173077 65.72596154 67.83173077 65.72596154 70.0625 70.1875 C73.5275 69.6925 73.5275 69.6925 77.0625 69.1875 C77.93500291 65.7768068 78.34545254 63.84772259 76.9375 60.5625 C72.2629002 54.64134025 66.51083244 51.78958979 59.125 50.5 C58.114375 50.396875 57.10375 50.29375 56.0625 50.1875 Z " fill="#EEEEEE" transform="translate(336.9375,78.8125)"/>
<path d="M0 0 C19 0 19 0 28 3 C28 3.66 28 4.32 28 5 C28.556875 5.185625 29.11375 5.37125 29.6875 5.5625 C37.64998841 10.51215496 39.41916993 20.60551062 42 29 C43.29887808 33.08311849 43.29887808 33.08311849 45 37 C45.15033691 36.410979 45.30067383 35.82195801 45.45556641 35.21508789 C46.1611708 32.49267095 46.89287979 29.77790107 47.625 27.0625 C47.86089844 26.13630859 48.09679687 25.21011719 48.33984375 24.25585938 C50.61055622 15.95902534 54.36981481 7.61360035 62 3 C70.61465691 -1.60783974 79.05056904 0 89 0 C89 30.69 89 61.38 89 93 C78.77 93 68.54 93 58 93 C55.43976546 87.87953091 58.38230799 78.36020042 60 73 C61.95147596 68.82689262 64.68589191 65.1944906 68 62 C68.66 62 69.32 62 70 62 C70.226875 61.360625 70.45375 60.72125 70.6875 60.0625 C71.7744932 57.52618252 72.94124661 55.45870937 74.375 53.125 C79.02703664 44.92200048 80.80846599 35.27013462 82 26 C81.76925781 26.85722656 81.53851563 27.71445313 81.30078125 28.59765625 C79.38784054 35.30429029 77.65170315 40.73623065 73 46 C72.34 46 71.68 46 71 46 C70.67 46.99 70.34 47.98 70 49 C68.44946289 50.25854492 68.44946289 50.25854492 66.47265625 51.48046875 C65.40821289 52.14272461 65.40821289 52.14272461 64.32226562 52.81835938 C63.57654297 53.27017578 62.83082031 53.72199219 62.0625 54.1875 C61.32064453 54.65091797 60.57878906 55.11433594 59.81445312 55.59179688 C54.27800534 59 54.27800534 59 52 59 C51.57074219 60.07314453 51.57074219 60.07314453 51.1328125 61.16796875 C48.56640625 67.58398438 48.56640625 67.58398438 46 74 C44.10546875 73.8046875 44.10546875 73.8046875 42 73 C40.98828125 70.8203125 40.98828125 70.8203125 40.3125 68.125 C40.08175781 67.24070312 39.85101563 66.35640625 39.61328125 65.4453125 C39.41089844 64.63835937 39.20851562 63.83140625 39 63 C38.35302189 59.95420891 38.35302189 59.95420891 36.3046875 59.01953125 C35.54414062 58.68308594 34.78359375 58.34664062 34 58 C20.88281971 50.74718583 20.88281971 50.74718583 16 46 C16 45.34 16 44.68 16 44 C15.34 44 14.68 44 14 44 C11.13965435 38.66068812 9.26869235 33.92056432 8 28 C9.2654958 41.28770591 12.03768487 51.75735413 21 62 C21 62.66 21 63.32 21 64 C21.66 64 22.32 64 23 64 C30.65905443 73.0337565 31 80.95522894 31 93 C20.77 93 10.54 93 0 93 C0 62.31 0 31.62 0 0 Z M6 22 C7 25 7 25 7 25 Z " fill="#F1F1F1" transform="translate(47,61)"/>
<path d="M0 0 C0.90363281 -0.020625 1.80726563 -0.04125 2.73828125 -0.0625 C12.95749364 -0.12131561 21.59311796 3.06481461 29.75 9.25 C38.03216861 17.50055728 41.11352479 26.27165829 41.25 37.75 C41.18537212 44.92230523 40.44458581 50.95412418 36.75 57.25 C36.39164062 57.88550781 36.03328125 58.52101562 35.6640625 59.17578125 C34.625 60.875 34.625 60.875 32.75 63.25 C32.09 63.25 31.43 63.25 30.75 63.25 C30.42 64.24 30.09 65.23 29.75 66.25 C29.09 66.25 28.43 66.25 27.75 66.25 C27.75 66.91 27.75 67.57 27.75 68.25 C26.09023188 69.2202321 24.421747 70.17555673 22.75 71.125 C21.821875 71.65867187 20.89375 72.19234375 19.9375 72.7421875 C9.73741932 77.56722567 -3.79148706 78.02081315 -14.6875 75.1875 C-25.82233047 71.05993353 -33.33875912 64.26325951 -39.0625 54 C-42.90491679 41.86605223 -43.38428154 30.79117134 -37.4375 19.3125 C-35.10093794 15.35919695 -32.82989836 12.13380701 -29.25 9.25 C-28.59 9.25 -27.93 9.25 -27.25 9.25 C-26.92 8.26 -26.59 7.27 -26.25 6.25 C-23.921875 4.8984375 -23.921875 4.8984375 -21 3.625 C-20.04609375 3.19960937 -19.0921875 2.77421875 -18.109375 2.3359375 C-12.11291047 0.05859168 -6.33541401 0.03554229 0 0 Z M-20.25 9.125 C-22.67744368 12.91788075 -22.59956704 14.63034764 -21.8203125 18.9375 C-18.79303498 31.21248829 -11.10769917 41.79860271 -4.25 52.25 C-3.79625 52.94351563 -3.3425 53.63703125 -2.875 54.3515625 C-0.38539451 58.00817056 2.1985986 60.63317792 5.75 63.25 C6.265625 63.78625 6.78125 64.3225 7.3125 64.875 C9.7597169 67.21581617 11.89506866 68.14313358 15.25 68.5625 C18.32170082 68.1785374 19.51066753 67.36337002 21.75 65.25 C23.80544623 56.87707934 19.91225061 49.84815296 15.73828125 42.90234375 C14.33355793 40.609209 12.90227976 38.33873595 11.45703125 36.0703125 C9.75 33.25 9.75 33.25 8.75 30.25 C8.09 30.25 7.43 30.25 6.75 30.25 C6.481875 29.528125 6.21375 28.80625 5.9375 28.0625 C4.75098638 25.25233617 3.47514361 22.76583443 1.75 20.25 C1.09 20.25 0.43 20.25 -0.25 20.25 C-0.4975 19.2290625 -0.4975 19.2290625 -0.75 18.1875 C-3.58974317 12.62633629 -8.05942639 8.99256733 -13.9375 7 C-17.36845455 7.00093798 -17.36845455 7.00093798 -20.25 9.125 Z " fill="#F0F0F0" transform="translate(181.25,78.75)"/>
<path d="M0 0 C0.99 0.66 1.98 1.32 3 2 C3 2.66 3 3.32 3 4 C3.66 4 4.32 4 5 4 C8.05309114 10.10618228 9.1459989 14.89350396 7.25 21.6875 C4.13972492 27.44150889 1.21406999 29.81962456 -5 32 C-6.6626049 32.35303519 -8.32876097 32.69040512 -10 33 C-9.33613281 33.08636719 -8.67226563 33.17273438 -7.98828125 33.26171875 C-7.10527344 33.40222656 -6.22226562 33.54273438 -5.3125 33.6875 C-4.44238281 33.81511719 -3.57226562 33.94273438 -2.67578125 34.07421875 C1.15156642 35.39842517 2.56120824 36.71468547 5 40 C5.70155698 43.95699719 5.58131787 47.85566297 5.48828125 51.86328125 C5.48120651 53.01040085 5.47413177 54.15752045 5.46684265 55.33940125 C5.43888813 58.99776838 5.37614286 62.65459663 5.3125 66.3125 C5.28741872 68.79489975 5.26460526 71.27732352 5.24414062 73.75976562 C5.19331192 79.84091135 5.0954506 85.91873646 5 92 C-5.23 92 -15.46 92 -26 92 C-26.04010881 75.89854132 -26.04010881 75.89854132 -26.04882812 69.04101562 C-26.05480848 64.35977039 -26.0618873 59.67854469 -26.07543945 54.99731445 C-26.08629584 51.22369485 -26.09228269 47.45009619 -26.09487724 43.67646217 C-26.09672652 42.23594648 -26.10033762 40.79543194 -26.10573006 39.35492516 C-26.11297686 37.3390858 -26.11340837 35.32322542 -26.11352539 33.30737305 C-26.115746 32.15931686 -26.11796661 31.01126068 -26.12025452 29.82841492 C-26 27 -26 27 -25 24 C-25.66 24 -26.32 24 -27 24 C-29.44432505 18.53621459 -29.29187309 13.73442948 -28 8 C-25.18104496 2.45929526 -25.18104496 2.45929526 -21.75 1.125 C-21.1725 1.08375 -20.595 1.0425 -20 1 C-20 0.34 -20 -0.32 -20 -1 C-13.39902449 -3.20032517 -6.43990087 -2.36567787 0 0 Z " fill="#F5F5F5" transform="translate(287,62)"/>
<path d="M0 0 C1.65 0 3.3 0 5 0 C5.35807292 2.01822917 5.71614583 4.03645833 6.07421875 6.0546875 C6.86384586 8.20041458 6.86384586 8.20041458 9.17578125 9.203125 C13.34770831 10.38026625 17.54380799 10.76999761 21.84375 11.2421875 C25.50150683 12.12041129 27.33149219 13.37983472 30 16 C31.18574288 19.55722863 31.11990193 22.37776544 31.11352539 26.13354492 C31.11367142 26.85574722 31.11381744 27.57794952 31.1139679 28.32203674 C31.11327145 30.70821134 31.1054916 33.09430779 31.09765625 35.48046875 C31.09579112 37.1352789 31.09436766 38.79008961 31.09336853 40.44490051 C31.08955085 44.79981003 31.07972695 49.15468618 31.06866455 53.50958252 C31.05843433 57.95364938 31.05386745 62.39772163 31.04882812 66.84179688 C31.03810402 75.56121493 31.02051327 84.28059947 31 93 C20.77 93 10.54 93 0 93 C0 62.31 0 31.62 0 0 Z " fill="#F7F7F7" transform="translate(226,61)"/>
<path d="M0 0 C0.86818359 -0.01224609 1.73636719 -0.02449219 2.63085938 -0.03710938 C10.73941358 -0.05549612 17.36448159 1.55041033 24.0625 6.1875 C27.03218135 10.49832776 27.86564159 14.01169861 27.0625 19.1875 C24.32896475 24.04408097 20.71032606 28.0889493 16.0625 31.1875 C15.4025 31.1875 14.7425 31.1875 14.0625 31.1875 C14.0625 31.8475 14.0625 32.5075 14.0625 33.1875 C11.52445542 34.34197871 8.98256371 35.48618427 6.4375 36.625 C5.72464844 36.95048828 5.01179688 37.27597656 4.27734375 37.61132812 C0.24391264 39.40601995 -3.4687537 40.92581666 -7.9375 41.1875 C-8.5975 40.5275 -9.2575 39.8675 -9.9375 39.1875 C-12.00624034 38.5449765 -12.00624034 38.5449765 -13.9375 38.1875 C-13.6075 37.5275 -13.2775 36.8675 -12.9375 36.1875 C-12.195 36.043125 -11.4525 35.89875 -10.6875 35.75 C-7.5661743 35.11154702 -5.54304903 33.99690905 -2.9375 32.1875 C-2.6075 31.5275 -2.2775 30.8675 -1.9375 30.1875 C-1.2775 30.1875 -0.6175 30.1875 0.0625 30.1875 C1.53084304 24.43648976 0.64509277 21.36880984 -2.02734375 16.10546875 C-2.9375 14.1875 -2.9375 14.1875 -2.9375 12.1875 C-3.515 11.89875 -4.0925 11.61 -4.6875 11.3125 C-6.9375 10.1875 -6.9375 10.1875 -8.75 9.0625 C-11.9781751 7.77122996 -14.4988366 7.81907178 -17.9375 8.1875 C-20.37848818 10.04170839 -20.37848818 10.04170839 -21.9375 12.1875 C-22.205625 11.548125 -22.47375 10.90875 -22.75 10.25 C-23.82417752 7.85618314 -23.82417752 7.85618314 -26.9375 7.1875 C-25.23557615 6.1972347 -23.52561989 5.22076794 -21.8125 4.25 C-20.86117188 3.70472656 -19.90984375 3.15945312 -18.9296875 2.59765625 C-12.86191931 -0.26195774 -6.57950333 0.0048629 0 0 Z " fill="#E8E8E8" transform="translate(336.9375,78.8125)"/>
<path d="M0 0 C0.99 0.66 1.98 1.32 3 2 C3 2.66 3 3.32 3 4 C3.66 4 4.32 4 5 4 C8.05309114 10.10618228 9.1459989 14.89350396 7.25 21.6875 C4.81648342 26.18950567 2.33352827 29.6035459 -2.6015625 31.5 C-9.57796932 32.95436494 -17.62560539 33.18719731 -24 30 C-24.33 34.29 -24.66 38.58 -25 43 C-25.33 43 -25.66 43 -26 43 C-26.02697137 40.39576408 -26.04682489 37.79180756 -26.0625 35.1875 C-26.07087891 34.44951172 -26.07925781 33.71152344 -26.08789062 32.95117188 C-26.10259828 29.70077932 -26.03531702 27.10595105 -25 24 C-25.66 24 -26.32 24 -27 24 C-29.44432505 18.53621459 -29.29187309 13.73442948 -28 8 C-25.18104496 2.45929526 -25.18104496 2.45929526 -21.75 1.125 C-21.1725 1.08375 -20.595 1.0425 -20 1 C-20 0.34 -20 -0.32 -20 -1 C-13.39902449 -3.20032517 -6.43990087 -2.36567787 0 0 Z " fill="#EEEEEE" transform="translate(287,62)"/>
<path d="M0 0 C0.99 0 1.98 0 3 0 C3.50512244 1.60256108 4.00391627 3.20711792 4.5 4.8125 C4.7784375 5.70582031 5.056875 6.59914063 5.34375 7.51953125 C6 10 6 10 6 13 C7.2684375 13.185625 7.2684375 13.185625 8.5625 13.375 C12.15236798 14.02770327 15.50824875 14.95247463 19 16 C19 16.99 19 17.98 19 19 C17.39743892 19.50512244 15.79288208 20.00391627 14.1875 20.5 C13.29417969 20.7784375 12.40085938 21.056875 11.48046875 21.34375 C9 22 9 22 6 22 C5.86722656 22.68707031 5.73445313 23.37414062 5.59765625 24.08203125 C5.42105469 24.98308594 5.24445313 25.88414063 5.0625 26.8125 C4.88847656 27.70582031 4.71445313 28.59914063 4.53515625 29.51953125 C4 32 4 32 3 35 C2.01 35 1.02 35 0 35 C-0.50757862 33.58603098 -1.00574925 32.16868271 -1.5 30.75 C-1.7784375 29.96109375 -2.056875 29.1721875 -2.34375 28.359375 C-3 26 -3 26 -3 22 C-3.68707031 21.87882812 -4.37414062 21.75765625 -5.08203125 21.6328125 C-5.98308594 21.46523438 -6.88414062 21.29765625 -7.8125 21.125 C-8.70582031 20.96257813 -9.59914062 20.80015625 -10.51953125 20.6328125 C-13 20 -13 20 -16 18 C-15.505 16.515 -15.505 16.515 -15 15 C-11.04 14.34 -7.08 13.68 -3 13 C-2.67 11.02 -2.34 9.04 -2 7 C-1.40346332 4.63997899 -0.6998627 2.33287568 0 0 Z " fill="#DADADA" transform="translate(203,35)"/>
<path d="M0 0 C0.99 0.33 1.98 0.66 3 1 C4.34256953 5.31035482 5 8.47781648 5 13 C10.94 13.99 10.94 13.99 17 15 C17.495 16.98 17.495 16.98 18 19 C11.565 20.485 11.565 20.485 5 22 C4.7525 23.77375 4.505 25.5475 4.25 27.375 C3.828125 30.3984375 3.828125 30.3984375 3 33 C0.921875 34.3515625 0.921875 34.3515625 -1 35 C-1.16113281 34.09636719 -1.32226562 33.19273437 -1.48828125 32.26171875 C-2.34730716 28.53655901 -3.22050599 25.39135453 -5 22 C-7.94842217 20.4312331 -10.33751843 19.92042807 -13.63671875 19.4921875 C-14.41660156 19.32976562 -15.19648438 19.16734375 -16 19 C-16.33 18.01 -16.66 17.02 -17 16 C-12.66579301 13.96834048 -8.71403788 13.47939368 -4 13 C-3.87882812 12.39671875 -3.75765625 11.7934375 -3.6328125 11.171875 C-3.46523438 10.37265625 -3.29765625 9.5734375 -3.125 8.75 C-2.96257812 7.96109375 -2.80015625 7.1721875 -2.6328125 6.359375 C-2.00849925 4.03168856 -1.15161458 2.10968048 0 0 Z " fill="#DDDDDD" transform="translate(308,154)"/>
<path d="M0 0 C3.70694893 0.55158102 5.10342371 1.88226654 7.4375 4.75 C9.51658092 7.25027404 11.57837674 9.63651372 13.9375 11.875 C16 14 16 14 16 16 C16.639375 16.268125 17.27875 16.53625 17.9375 16.8125 C20 18 20 18 21 21 C21.66 21 22.32 21 23 21 C23 22.32 23 23.64 23 25 C22.401875 25.04125 21.80375 25.0825 21.1875 25.125 C18.67819877 25.84774995 18.67819877 25.84774995 17.5625 28.875 C15.74615281 32.50769438 14.74283644 33.50286542 11 35 C7.00647377 35.58323304 3.91950825 35.38823682 0.1875 33.8125 C-3.73992281 30.55834967 -4.87134089 28.15793195 -5.4375 23.0625 C-5.26847375 18.79659943 -3.75109882 16.2860347 -1 13 C1.25 11.125 1.25 11.125 3 10 C2.80528889 8.05000871 2.80528889 8.05000871 2 6 C0.0162233 4.71563266 0.0162233 4.71563266 -2 4 C-1.34 2.68 -0.68 1.36 0 0 Z M1 18 C-0.36636155 19.15866921 -0.36636155 19.15866921 -0.375 22.3125 C-0.33847768 26.06087226 -0.33847768 26.06087226 2.0625 28.5 C5.91260646 30.46601181 7.89200092 30.21718491 12 29 C14.12894624 27.38451799 14.12894624 27.38451799 15 25 C14.91793151 21.71726042 14.25020429 20.31059843 12.1875 17.75 C7.69218221 14.15374577 5.63816311 14.74075024 1 18 Z " fill="#C0C0C0" transform="translate(455,136)"/>
<path d="M0 0 C1.32 0 2.64 0 4 0 C7.20985892 6.07580439 10.24381741 12.33081583 12 19 C11.67 19.99 11.34 20.98 11 22 C8.1875 23.0625 8.1875 23.0625 5 24 C4.360625 24.37125 3.72125 24.7425 3.0625 25.125 C-0.56437876 26.66367584 -4.3224731 26.53680861 -8.05078125 25.34375 C-10.8205457 23.43433323 -11.46378047 21.35369245 -12.6875 18.25 C-13.10386719 17.22390625 -13.52023437 16.1978125 -13.94921875 15.140625 C-14.97140525 12.08546534 -15.565842 9.18700598 -16 6 C-14.68 5.67 -13.36 5.34 -12 5 C-11.74605469 5.58007812 -11.49210937 6.16015625 -11.23046875 6.7578125 C-9.2595089 11.23122698 -7.23156912 15.64844022 -5 20 C-0.7023817 20.39727815 -0.7023817 20.39727815 3.0625 18.5625 C4.38857118 14.93790544 3.19294008 12.83572235 1.83984375 9.328125 C0.71683442 6.21503868 0.34909796 3.28152081 0 0 Z " fill="#D8D8D8" transform="translate(427,168)"/>
<path d="M0 0 C1.19882812 0.15275391 1.19882812 0.15275391 2.421875 0.30859375 C3.02515625 0.39238281 3.6284375 0.47617188 4.25 0.5625 C4.58 1.5525 4.91 2.5425 5.25 3.5625 C6.24 3.8925 7.23 4.2225 8.25 4.5625 C10.11356079 8.28962158 9.81549975 12.5045732 9.25 16.5625 C7.3758346 20.18781608 5.17635083 22.25371639 1.25 23.5625 C-3.98874905 23.95787729 -7.28136583 23.36838657 -11.75 20.5625 C-14.72655864 16.09766204 -14.48906389 11.79566953 -13.75 6.5625 C-12.22064327 3.41239073 -10.2733091 1.11152599 -6.875 -0.11328125 C-4.4520757 -0.48295536 -2.42681585 -0.32119622 0 0 Z M-9.75 8.5625 C-10.82291301 11.01487259 -10.90123375 12.06342863 -10.125 14.625 C-8.2960635 17.2021378 -6.6363152 18.28715143 -3.75 19.5625 C-0.2158688 19.31006206 1.25316126 18.56039249 4.25 16.5625 C5.42761741 13.23833445 5.42761741 13.23833445 5.25 9.5625 C2.81927503 6.10055838 1.37178713 4.76854253 -2.8125 4 C-6.40902947 4.68869713 -7.57074049 5.65682065 -9.75 8.5625 Z " fill="#C1C1C1" transform="translate(497.75,84.4375)"/>
<path d="M0 0 C2.23416507 1.15463153 3.99912607 2.44932271 6 4 C5.67 4.99 5.34 5.98 5 7 C4.01 7.33 3.02 7.66 2 8 C0.32580562 7.0126546 -1.34051852 6.01187895 -3 5 C-4.32 5 -5.64 5 -7 5 C-6.33131686 8.11332248 -6.33131686 8.11332248 -3.9375 9.1875 C-3.298125 9.455625 -2.65875 9.72375 -2 10 C-2 10.66 -2 11.32 -2 12 C-1.01 12 -0.02 12 1 12 C2.57266062 15.05795121 3.18219122 16.38335279 2.1875 19.75 C1 22 1 22 0 23 C-4.99636434 23.43592441 -9.54464309 23.62780102 -14.1875 21.625 C-14.785625 21.08875 -15.38375 20.5525 -16 20 C-16 19.34 -16 18.68 -16 18 C-16.66 18 -17.32 18 -18 18 C-17.34 16.68 -16.68 15.36 -16 14 C-13.50638429 15.20381448 -11.31856917 16.45428722 -9 18 C-7.0103005 18.39013716 -5.00980131 18.73202649 -3 19 C-3 17.68 -3 16.36 -3 15 C-5.65228812 13.92474806 -8.28368454 12.90543849 -11 12 C-13.31282587 8.53076119 -13.42478586 7.07794425 -13 3 C-9.45296087 -1.67564249 -5.35664751 -1.32924216 0 0 Z " fill="#C0C0C0" transform="translate(358,172)"/>
<path d="M0 0 C2.375 0.3125 2.375 0.3125 5 1 C5.66 1.99 6.32 2.98 7 4 C9.56282742 4.72965366 9.56282742 4.72965366 12 5 C12 6.32 12 7.64 12 9 C9.69 9.33 7.38 9.66 5 10 C5.33 14.29 5.66 18.58 6 23 C7.65 23 9.3 23 11 23 C11.66 24.32 12.32 25.64 13 27 C9.50875983 29.32749345 8.10777749 29.50299316 4 29 C1.82421875 27.4921875 1.82421875 27.4921875 0 25 C-0.2906124 22.10550051 -0.38186045 19.62050065 -0.25 16.75 C-0.23195313 16.00492188 -0.21390625 15.25984375 -0.1953125 14.4921875 C-0.14835649 12.66090299 -0.07661652 10.83028351 0 9 C-0.99 9.33 -1.98 9.66 -3 10 C-3.33 8.35 -3.66 6.7 -4 5 C-2.68 5 -1.36 5 0 5 C0 3.35 0 1.7 0 0 Z " fill="#AAAAAA" transform="translate(382,172)"/>
<path d="M0 0 C3.91841827 1.30613942 6.32640809 2.83129848 9 6 C9 6.66 9 7.32 9 8 C9.639375 8.268125 10.27875 8.53625 10.9375 8.8125 C13 10 13 10 14 13 C14.66 13 15.32 13 16 13 C16 14.32 16 15.64 16 17 C15.401875 17.061875 14.80375 17.12375 14.1875 17.1875 C11.12856542 18.3236757 10.44958901 20.17330142 9 23 C8.34 22.01 7.68 21.02 7 20 C7.33 19.34 7.66 18.68 8 18 C6.67232246 12.72274031 6.67232246 12.72274031 3 9 C-0.61023099 8.26958147 -0.61023099 8.26958147 -4 8 C-3.34 7.67 -2.68 7.34 -2 7 C-1.26924352 4.6859378 -0.59861742 2.35171131 0 0 Z " fill="#C6C6C6" transform="translate(462,144)"/>
<path d="M0 0 C4.76469307 0.62790529 8.54975234 2.54871413 12.75 4.75 C13.43449219 5.08515625 14.11898438 5.4203125 14.82421875 5.765625 C19.77778496 8.35521209 19.77778496 8.35521209 20.953125 11.765625 C20.96859375 12.50296875 20.9840625 13.2403125 21 14 C15.80955552 14 12.80049881 12.10181128 8.3125 9.6875 C7.1359082 9.08131836 7.1359082 9.08131836 5.93554688 8.46289062 C5.18982422 8.06650391 4.44410156 7.67011719 3.67578125 7.26171875 C2.99427002 6.90037842 2.31275879 6.53903809 1.6105957 6.16674805 C0 5 0 5 -1 2 C-0.67 1.34 -0.34 0.68 0 0 Z " fill="#B4B4B4" transform="translate(474,122)"/>
<path d="M0 0 C0.25394531 0.58007812 0.50789063 1.16015625 0.76953125 1.7578125 C1.48232472 3.37561342 2.20273794 4.99007292 2.9296875 6.6015625 C3.80033902 8.55258451 4.62581327 10.52371925 5.4375 12.5 C6.78244713 15.24734125 6.78244713 15.24734125 9.6875 15.875 C10.8321875 15.936875 10.8321875 15.936875 12 16 C12 16.33 12 16.66 12 17 C10.2984375 17.2165625 10.2984375 17.2165625 8.5625 17.4375 C5.19222799 17.61171478 5.19222799 17.61171478 4 19 C6.97 19.33 9.94 19.66 13 20 C13 20.33 13 20.66 13 21 C5.28574439 21.29670214 5.28574439 21.29670214 2 19 C0.55078125 16.390625 0.55078125 16.390625 -0.6875 13.25 C-1.10386719 12.22390625 -1.52023437 11.1978125 -1.94921875 10.140625 C-2.97140525 7.08546534 -3.565842 4.18700598 -4 1 C-2 0 -2 0 0 0 Z " fill="#B1B1B1" transform="translate(415,173)"/>
<path d="M0 0 C0.78375 0.0825 1.5675 0.165 2.375 0.25 C3.035 1.24 3.695 2.23 4.375 3.25 C3.375 4.25 3.375 4.25 1.52734375 4.34765625 C-0.5234375 4.31510417 -2.57421875 4.28255208 -4.625 4.25 C-4.625 5.24 -4.625 6.23 -4.625 7.25 C-5.285 7.25 -5.945 7.25 -6.625 7.25 C-7.37426071 10.91305234 -7.8630014 13.67355152 -6.625 17.25 C-7.285 17.25 -7.945 17.25 -8.625 17.25 C-8.955 18.57 -9.285 19.89 -9.625 21.25 C-12.60155864 16.78516204 -12.36406389 12.48316953 -11.625 7.25 C-10.04743804 4.00059947 -7.99820383 1.85077667 -4.625 0.375 C-3.08128619 0.27851789 -1.53975866 0.14664368 0 0 Z " fill="#BBBBBB" transform="translate(495.625,83.75)"/>
<path d="M0 0 C0.99 0.33 1.98 0.66 3 1 C2.34 1 1.68 1 1 1 C1.33 5.29 1.66 9.58 2 14 C3.65 14 5.3 14 7 14 C7.66 15.32 8.32 16.64 9 18 C5.52957297 20.31361802 4.08165827 20.51020728 0 20 C-1.875 18 -1.875 18 -3 16 C-2.34 16 -1.68 16 -1 16 C-0.67 10.72 -0.34 5.44 0 0 Z " fill="#9C9C9C" transform="translate(386,181)"/>
<path d="M0 0 C2.20449433 1.02351522 4.03843541 2.0309963 5.9375 3.5625 C8.29598047 5.20628942 10.17748429 5.60798393 13 6 C13 6.99 13 7.98 13 9 C4.2404908 9.44539877 4.2404908 9.44539877 0 6 C0 5.34 0 4.68 0 4 C-0.66 4 -1.32 4 -2 4 C-1.34 2.68 -0.68 1.36 0 0 Z " fill="#C6C6C6" transform="translate(342,186)"/>
<path d="M0 0 C2.72574271 0.37330824 3.80822085 0.79194601 5.703125 2.84765625 C6.21359375 3.57855469 6.7240625 4.30945313 7.25 5.0625 C7.77078125 5.79597656 8.2915625 6.52945313 8.828125 7.28515625 C9.21484375 7.85105469 9.6015625 8.41695312 10 9 C6.28125 10.1171875 6.28125 10.1171875 3.75 9.0625 C3.1725 8.711875 2.595 8.36125 2 8 C2 7.34 2 6.68 2 6 C0.68 5.34 -0.64 4.68 -2 4 C-1.34 2.68 -0.68 1.36 0 0 Z " fill="#B6B6B6" transform="translate(455,136)"/>
<path d="M0 0 C1.32 0 2.64 0 4 0 C3.125 4.875 3.125 4.875 2 6 C0.5444063 6.09858603 -0.91607919 6.12972143 -2.375 6.125 C-3.16648437 6.12757813 -3.95796875 6.13015625 -4.7734375 6.1328125 C-7 6 -7 6 -10 5 C-9.67 4.34 -9.34 3.68 -9 3 C-6.66752239 2.66073053 -4.33414529 2.32759934 -2 2 C-1.34 1.34 -0.68 0.68 0 0 Z " fill="#DCDCDC" transform="translate(429,187)"/>
<path d="M0 0 C0.33 0 0.66 0 1 0 C1 5.94 1 11.88 1 18 C0.01 17.67 -0.98 17.34 -2 17 C-2 12.05 -2 7.1 -2 2 C-1.34 2 -0.68 2 0 2 C0 1.34 0 0.68 0 0 Z " fill="#FBFBFB" transform="translate(385,180)"/>
<path d="M0 0 C0.66 0 1.32 0 2 0 C2.33 1.98 2.66 3.96 3 6 C3.66 6 4.32 6 5 6 C5.33 5.01 5.66 4.02 6 3 C8.36556709 5.36556709 8.58244041 6.74303521 9 10 C8 11 8 11 5.4375 11.0625 C4.633125 11.041875 3.82875 11.02125 3 11 C3 10.01 3 9.02 3 8 C2.01 7.67 1.02 7.34 0 7 C0.2784375 6.1028125 0.2784375 6.1028125 0.5625 5.1875 C1.22093687 2.83591238 1.22093687 2.83591238 0 0 Z " fill="#A8A8A8" transform="translate(430,179)"/>
<path d="M0 0 C3.34373475 0.55728913 6.03312999 1.35173889 9 3 C8.67 4.32 8.34 5.64 8 7 C4.85375007 7.26218749 3.38162983 7.24754367 0.6875 5.5 C0.130625 5.005 -0.42625 4.51 -1 4 C-0.67 2.68 -0.34 1.36 0 0 Z " fill="#C0C0C0" transform="translate(474,122)"/>
<path d="M0 0 C3.82097239 0.53069061 6.06171403 1.49701566 9 4 C8.67 4.99 8.34 5.98 8 7 C7.01 7.33 6.02 7.66 5 8 C2.5625 6.6875 2.5625 6.6875 0 5 C-1.32608822 4.31903578 -2.65686601 3.64669414 -4 3 C-2.68 2.34 -1.36 1.68 0 1 C0 0.67 0 0.34 0 0 Z " fill="#A4A4A4" transform="translate(355,172)"/>
<path d="M0 0 C0.5625 1.9375 0.5625 1.9375 1 4 C0 5 0 5 -1.84765625 5.09765625 C-3.8984375 5.06510417 -5.94921875 5.03255208 -8 5 C-8 3.68 -8 2.36 -8 1 C-5.36 0.67 -2.72 0.34 0 0 Z " fill="#E2E2E2" transform="translate(466,166)"/>
<path d="M0 0 C1.32 0.33 2.64 0.66 4 1 C4 1.66 4 2.32 4 3 C4.99 3.33 5.98 3.66 7 4 C6.38125 4.144375 5.7625 4.28875 5.125 4.4375 C2.96741678 4.93152225 2.96741678 4.93152225 1 6 C0.34 5.67 -0.32 5.34 -1 5 C-3.3329866 4.95977609 -5.66706666 4.95679753 -8 5 C-8 4.34 -8 3.68 -8 3 C-5.36 2.67 -2.72 2.34 0 2 C0 1.34 0 0.68 0 0 Z " fill="#A5A5A5" transform="translate(499,85)"/>
<path d="M0 0 C0.66 0.66 1.32 1.32 2 2 C1.67 2.66 1.34 3.32 1 4 C1.33 4.99 1.66 5.98 2 7 C0.02 7.99 0.02 7.99 -2 9 C-2.33 8.01 -2.66 7.02 -3 6 C-5.31 6 -7.62 6 -10 6 C-10.33 5.34 -10.66 4.68 -11 4 C-9.9275 4.0825 -8.855 4.165 -7.75 4.25 C-3.95990735 4.36237217 -3.95990735 4.36237217 -1.5625 2 C-1.046875 1.34 -0.53125 0.68 0 0 Z " fill="#919191" transform="translate(469,161)"/>
<path d="M0 0 C2.375 -0.1875 2.375 -0.1875 5 0 C5.66 0.99 6.32 1.98 7 3 C5.41727399 4.58272601 3.61965997 4.34735747 1.4375 4.5625 C0.19806641 4.68818359 0.19806641 4.68818359 -1.06640625 4.81640625 C-2.02353516 4.90728516 -2.02353516 4.90728516 -3 5 C-2.67 4.01 -2.34 3.02 -2 2 C-1.34 2 -0.68 2 0 2 C0 1.34 0 0.68 0 0 Z " fill="#EAEAEA" transform="translate(493,84)"/>
<path d="M0 0 C0.66 0.33 1.32 0.66 2 1 C1.1875 3.4375 1.1875 3.4375 0 6 C-0.99 6.33 -1.98 6.66 -3 7 C-3 6.01 -3 5.02 -3 4 C-4.98 4.33 -6.96 4.66 -9 5 C-6.32239719 2.32239719 -3.52050129 1.32018799 0 0 Z " fill="#ACACAC" transform="translate(164,81)"/>
<path d="M0 0 C1.98 0.495 1.98 0.495 4 1 C3.67 2.65 3.34 4.3 3 6 C1.68 5.67 0.36 5.34 -1 5 C-0.67 3.35 -0.34 1.7 0 0 Z " fill="#C4C4C4" transform="translate(467,118)"/>
<path d="M0 0 C2.46800047 1.15173355 4.04783565 2.04783565 6 4 C4.68 4 3.36 4 2 4 C1.67 4.99 1.34 5.98 1 7 C0.67 6.01 0.34 5.02 0 4 C-0.66 4 -1.32 4 -2 4 C-1.34 2.68 -0.68 1.36 0 0 Z " fill="#9A9A9A" transform="translate(342,186)"/>
<path d="M0 0 C0.66 1.65 1.32 3.3 2 5 C0.68 5 -0.64 5 -2 5 C-2.33 5.66 -2.66 6.32 -3 7 C-3.33 5.02 -3.66 3.04 -4 1 C-2 0 -2 0 0 0 Z " fill="#A1A1A1" transform="translate(415,173)"/>
<path d="M0 0 C1.32 0 2.64 0 4 0 C4.33 0.99 4.66 1.98 5 3 C4.01 3.99 3.02 4.98 2 6 C2.66 6.33 3.32 6.66 4 7 C3.34 7.66 2.68 8.32 2 9 C1.34 6.03 0.68 3.06 0 0 Z " fill="#B0B0B0" transform="translate(427,168)"/>
<path d="M0 0 C2.64 0 5.28 0 8 0 C8 0.99 8 1.98 8 3 C7.01 3.33 6.02 3.66 5 4 C2.3125 2.0625 2.3125 2.0625 0 0 Z " fill="#E4E4E4" transform="translate(385,178)"/>
<path d="M0 0 C0.33 0.66 0.66 1.32 1 2 C1.66 2.33 2.32 2.66 3 3 C2.071875 3.556875 2.071875 3.556875 1.125 4.125 C-1.5510596 6.48622906 -2.0936844 8.60131652 -3 12 C-3.88336837 9.5332355 -4.1312406 8.36140628 -3.22265625 5.859375 C-2.83980469 5.16328125 -2.45695312 4.4671875 -2.0625 3.75 C-1.68222656 3.04359375 -1.30195312 2.3371875 -0.91015625 1.609375 C-0.60980469 1.07828125 -0.30945313 0.5471875 0 0 Z " fill="#A7A7A7" transform="translate(101,72)"/>
<path d="M0 0 C1.98 0 3.96 0 6 0 C6.33 1.32 6.66 2.64 7 4 C5.02 4.33 3.04 4.66 1 5 C1.66 4.67 2.32 4.34 3 4 C3 3.34 3 2.68 3 2 C2.01 1.34 1.02 0.68 0 0 Z " fill="#9C9C9C" transform="translate(215,50)"/>
<path d="M0 0 C1.125 3.75 1.125 3.75 0 6 C-0.66 6 -1.32 6 -2 6 C-2.33 6.66 -2.66 7.32 -3 8 C-3.1875 5.125 -3.1875 5.125 -3 2 C-2.01 1.34 -1.02 0.68 0 0 Z " fill="#F0F0F0" transform="translate(487,91)"/>
<path d="M0 0 C-0.33 1.65 -0.66 3.3 -1 5 C-1.99 5.33 -2.98 5.66 -4 6 C-4 4.35 -4 2.7 -4 1 C-2 0 -2 0 0 0 Z " fill="#C0C0C0" transform="translate(311,183)"/>
<path d="M0 0 C1.32 0.33 2.64 0.66 4 1 C3.01 2.485 3.01 2.485 2 4 C1.34 4 0.68 4 0 4 C-0.33 4.66 -0.66 5.32 -1 6 C-1.66 5.34 -2.32 4.68 -3 4 C-2.01 2.68 -1.02 1.36 0 0 Z " fill="#C5C5C5" transform="translate(423,80)"/>
<path d="M0 0 C1.98 0 3.96 0 6 0 C6 0.99 6 1.98 6 3 C4.35 3 2.7 3 1 3 C0.67 2.01 0.34 1.02 0 0 Z " fill="#F9F9F9" transform="translate(349,192)"/>
<path d="M0 0 C2.475 0.495 2.475 0.495 5 1 C5 1.99 5 2.98 5 4 C3.35 4.33 1.7 4.66 0 5 C0 3.33333333 0 1.66666667 0 0 Z " fill="#868686" transform="translate(321,169)"/>
<path d="M0 0 C-0.804375 0.28875 -1.60875 0.5775 -2.4375 0.875 C-5.1326468 1.73262568 -5.1326468 1.73262568 -6 4 C-6.99 3.67 -7.98 3.34 -9 3 C-9 2.34 -9 1.68 -9 1 C-5.57367167 -0.61798838 -3.61944899 -1.34053666 0 0 Z " fill="#A1A1A1" transform="translate(300,169)"/>
<path d="M0 0 C1.98 0 3.96 0 6 0 C6 0.99 6 1.98 6 3 C4.02 3 2.04 3 0 3 C0 2.01 0 1.02 0 0 Z " fill="#F8F8F8" transform="translate(493,104)"/>
</svg>
