<?xml version="1.0" encoding="UTF-8"?>
<svg version="1.1" xmlns="http://www.w3.org/2000/svg" viewBox="0 0 374 192">
<path d="M0 0 C123.42 0 246.84 0 374 0 C374 63.36 374 126.72 374 192 C250.58 192 127.16 192 0 192 C0 128.64 0 65.28 0 0 Z " fill="#FEFEFE" transform="translate(0,0)"/>
<path d="M0 0 C0.78632813 -0.02900391 1.57265625 -0.05800781 2.3828125 -0.08789062 C8.17088447 -0.15038642 11.50428798 0.9644126 16.25 4.3125 C17.82455739 7.46161479 17.59799118 9.83258816 17.25 13.3125 C13.66187035 18.59038837 9.84712566 20.98281629 4.125 23.625 C3.40957031 23.97111328 2.69414062 24.31722656 1.95703125 24.67382812 C-0.91108729 26.04891673 -3.73033985 27.30594662 -6.75 28.3125 C-2.69457633 34.12949832 1.33335463 39.86605692 8.25 42.3125 C14.28107416 42.87663109 18.56278354 41.12767619 23.25 37.3125 C23.848125 36.57 24.44625 35.8275 25.0625 35.0625 C28.04284298 32.67822562 30.26331425 32.68079958 34.0078125 32.87109375 C37.67207711 33.59245595 39.96855995 35.49582475 42.25 38.3125 C43.12650403 39.73649004 43.98039727 41.17461661 44.8125 42.625 C45.94021646 44.6815491 45.94021646 44.6815491 47.25 46.3125 C49.96658257 46.98404684 49.96658257 46.98404684 52.25 46.3125 C52.65996822 42.02691979 52.65996822 42.02691979 50.79296875 38.296875 C47.26177768 35.54135263 43.57331069 34.558231 39.3125 33.3125 C32.21308887 31.2267973 27.44226411 29.33426945 22.9375 23.125 C20.73381633 18.93350372 20.41253437 14.94816836 21.25 10.3125 C23.45322802 5.987645 26.00690252 2.71077249 30.25 0.3125 C36.15971925 -0.59590244 40.87942961 0.32351464 46.30078125 2.6328125 C49.762932 3.84005545 52.60928326 3.68274238 56.25 3.3125 C58.12890434 1.93743901 58.12890434 1.93743901 59.25 0.3125 C59.91 0.3125 60.57 0.3125 61.25 0.3125 C61.7060284 6.01285501 60.85412752 8.86034247 57.25 13.3125 C54.00315316 14.93592342 51.8465519 14.78417894 48.25 14.3125 C45.56877288 12.2792361 43.43050768 9.86462302 41.25 7.3125 C38.50795965 3.9673735 38.50795965 3.9673735 34.5 3.0625 C33.38625 3.18625 33.38625 3.18625 32.25 3.3125 C31.92 4.6325 31.59 5.9525 31.25 7.3125 C35.17129149 10.44953319 38.7144308 11.83639875 43.5625 13.1875 C50.41720096 15.18515571 56.55115545 17.75912381 60.96484375 23.5703125 C63.43909729 28.84972279 62.84523226 34.62100955 62.25 40.3125 C60.04285644 45.23612794 57.12702674 48.00699645 52.25 50.3125 C45.19999037 51.48385253 40.19288468 50.42550092 34.3203125 46.40625 C31.76684336 45.05724744 30.09955807 44.97112199 27.25 45.3125 C25.54467677 47.25259522 25.54467677 47.25259522 24.25 49.3125 C23.59 49.3125 22.93 49.3125 22.25 49.3125 C21.92 47.6625 21.59 46.0125 21.25 44.3125 C20.58613281 44.66183594 19.92226562 45.01117188 19.23828125 45.37109375 C18.35527344 45.82613281 17.47226563 46.28117187 16.5625 46.75 C15.25732422 47.42869141 15.25732422 47.42869141 13.92578125 48.12109375 C6.56115277 51.4002349 -2.99525608 51.72813137 -10.67578125 49.44140625 C-17.71348555 46.18419864 -23.50971533 40.94203875 -26.26953125 33.515625 C-27.88877328 26.09080787 -28.00179473 18.58645505 -24.3125 11.8125 C-18.19411381 2.9699752 -10.38197672 0.12518461 0 0 Z " fill="#060606" transform="translate(227.75,57.6875)"/>
<path d="M0 0 C9.11170213 0 9.11170213 0 13.1875 1.25 C13.98542969 1.48203125 14.78335938 1.7140625 15.60546875 1.953125 C19.87199956 3.81842721 22.41330423 5.82660847 24.51171875 10.0234375 C24.89972656 11.12945312 25.28773437 12.23546875 25.6875 13.375 C26.08324219 14.47585937 26.47898437 15.57671875 26.88671875 16.7109375 C27.93375667 19.80429165 28.97430659 22.89950211 30 26 C30.29132812 24.92621094 30.58265625 23.85242188 30.8828125 22.74609375 C35.41129407 6.7339389 35.41129407 6.7339389 41 3 C47.56550612 -0.06987829 52.55340565 0 60 0 C60 20.79 60 41.58 60 63 C53.4 63 46.8 63 40 63 C39.32553316 54.11951992 40.44294987 49.86767517 46 43 C53.0167876 34.03410473 56 23.40524467 56 12 C55.69707031 13.09699219 55.39414063 14.19398437 55.08203125 15.32421875 C54.65970632 16.7788935 54.23648137 18.23330717 53.8125 19.6875 C53.61591797 20.40873047 53.41933594 21.12996094 53.21679688 21.87304688 C50.95410912 29.49656409 46.4396466 32.92643507 39.8125 37.125 C34.05396266 40.67315008 34.05396266 40.67315008 31.375 46.6875 C31.25125 47.450625 31.1275 48.21375 31 49 C30.34 49 29.68 49 29 49 C28.34895833 47.30729167 27.69791667 45.61458333 27.046875 43.921875 C24.60186034 39.433266 20.84053393 37.20645602 16.5 34.75 C11.2702703 31.47446451 8.86525677 28.83410869 7 23 C6.70609375 22.09894531 6.4121875 21.19789062 6.109375 20.26953125 C5.36056179 17.85631049 4.6596887 15.43884915 4 13 C2.80931552 24.66870794 7.93468001 35.67053005 15.1328125 44.53515625 C19.98622581 50.94206796 20.13849514 54.3849514 21 63 C14.07 63 7.14 63 0 63 C0 42.21 0 21.42 0 0 Z " fill="#111111" transform="translate(32,45)"/>
<path d="M0 0 C6.87800976 3.21747389 10.93799294 7.90684402 14.671875 14.37890625 C16.96777101 22.03189296 16.67146542 29.00211853 12.97265625 36.1328125 C8.46245923 43.7896586 3.43016067 46.79155356 -5.203125 49.12890625 C-13.65569516 50.19009137 -20.8814296 49.6285349 -28.203125 45.12890625 C-29.110625 44.57203125 -30.018125 44.01515625 -30.953125 43.44140625 C-37.43823779 36.77615144 -38.98259284 30.47606003 -38.86035156 21.375 C-38.5192624 15.01551934 -36.95098945 10.56859288 -32.203125 6.12890625 C-22.61459604 -1.4037907 -11.88733425 -3.23277505 0 0 Z " fill="#070707" transform="translate(134.203125,58.87109375)"/>
<path d="M0 0 C2.08109784 0.66337363 4.04244815 1.46483593 6.05078125 2.3203125 C9.512932 3.52755545 12.35928326 3.37024238 16 3 C17.87890434 1.62493901 17.87890434 1.62493901 19 0 C19.66 0 20.32 0 21 0 C21.4560284 5.70035501 20.60412752 8.54784247 17 13 C13.75315316 14.62342342 11.5965519 14.47167894 8 14 C5.31877288 11.9667361 3.18050768 9.55212302 1 7 C-1.74204035 3.6548735 -1.74204035 3.6548735 -5.75 2.75 C-6.86375 2.87375 -6.86375 2.87375 -8 3 C-8.33 4.32 -8.66 5.64 -9 7 C-5.07870851 10.13703319 -1.5355692 11.52389875 3.3125 12.875 C10.16720096 14.87265571 16.30115545 17.44662381 20.71484375 23.2578125 C23.18909729 28.53722279 22.59523226 34.30850955 22 40 C19.79251642 44.92438645 16.77834884 47.51127665 12 50 C9.625 49.75 9.625 49.75 8 49 C8 48.34 8 47.68 8 47 C9.98 46.505 9.98 46.505 12 46 C12.40996822 41.71441979 12.40996822 41.71441979 10.54296875 37.984375 C7.01177768 35.22885263 3.32331069 34.245731 -0.9375 33 C-8.03691113 30.9142973 -12.80773589 29.02176945 -17.3125 22.8125 C-19.51618367 18.62100372 -19.83746563 14.63566836 -19 10 C-14.594387 1.35194486 -9.37555833 -1.24911727 0 0 Z " fill="#070707" transform="translate(268,58)"/>
<path d="M0 0 C0.99 0 1.98 0 3 0 C3.20753906 0.79148438 3.41507813 1.58296875 3.62890625 2.3984375 C4.76814016 5.25340716 4.76814016 5.25340716 7.71484375 6.0390625 C8.77832031 6.23242188 9.84179688 6.42578125 10.9375 6.625 C17.62313662 7.87601827 17.62313662 7.87601827 20 11 C20.36076355 13.29692078 20.36076355 13.29692078 20.34057617 16.0222168 C20.34034958 17.04304855 20.34012299 18.06388031 20.33988953 19.11564636 C20.32440567 20.21572525 20.30892181 21.31580414 20.29296875 22.44921875 C20.28872391 23.5769722 20.28447906 24.70472565 20.28010559 25.86665344 C20.26329311 29.47384367 20.22563528 33.08047822 20.1875 36.6875 C20.17245653 39.13085132 20.15876754 41.57421137 20.14648438 44.01757812 C20.11338102 50.01193334 20.06158026 56.00587241 20 62 C13.4 62 6.8 62 0 62 C0 41.54 0 21.08 0 0 Z " fill="#080808" transform="translate(153,46)"/>
<path d="M0 0 C3.465 1.485 3.465 1.485 7 3 C9.58565112 3.58432794 12.14525787 3.98438627 14.765625 4.375 C17.53405985 5.14938737 18.33755964 5.63925814 20 8 C20.26156261 10.72906362 20.34921131 13.2246099 20.29296875 15.94921875 C20.28872391 16.72183548 20.28447906 17.49445221 20.28010559 18.29048157 C20.26332183 20.75650992 20.22567147 23.22171896 20.1875 25.6875 C20.17245271 27.36001423 20.15876438 29.03254128 20.14648438 30.70507812 C20.11597165 34.80395447 20.05725368 38.90106096 20 43 C13.4 43 6.8 43 0 43 C0 28.81 0 14.62 0 0 Z " fill="#070707" transform="translate(177,65)"/>
<path d="M0 0 C0 0.66 0 1.32 0 2 C-0.99 2.66 -1.98 3.32 -3 4 C-2.77176692 17.23751876 5.51027331 29.31031194 14 39 C17.21589948 41.79517278 19.96165136 43.61542332 24 45 C17.83533754 49.10977497 11.18400727 48.57065564 4 48 C0.68203646 47.08909394 -2.07584142 45.7970739 -5 44 C-5.9075 43.443125 -6.815 42.88625 -7.75 42.3125 C-14.23946899 35.64276798 -15.7662385 29.3509923 -15.66162109 20.24829102 C-15.33038441 13.89347993 -13.64377947 9.50213914 -9 5 C-3.26365796 0 -3.26365796 0 0 0 Z " fill="#050505" transform="translate(111,60)"/>
<path d="M0 0 C0.76828125 -0.01998047 1.5365625 -0.03996094 2.328125 -0.06054688 C7.99849473 -0.05572513 11.34468552 1.18241683 16 4.4375 C17.57455739 7.58661479 17.34799118 9.95758816 17 13.4375 C13.44994675 18.60867583 9.63792797 21.20414256 4.0625 23.9375 C3.02706055 24.494375 3.02706055 24.494375 1.97070312 25.0625 C-1.53251407 26.81576889 -3.36163506 27.52601594 -7.32421875 26.9765625 C-12.11956569 24.21836295 -13.40847799 19.53448643 -15 14.4375 C-15.50168955 10.88576604 -15.64413231 7.72576462 -14 4.4375 C-14.66 4.1075 -15.32 3.7775 -16 3.4375 C-10.49086315 0.6756056 -6.12882125 -0.05655791 0 0 Z " fill="#090909" transform="translate(228,57.5625)"/>
<path d="M0 0 C5.30675774 0.6123182 8.3653604 3.3385907 11.77734375 7.3359375 C12.59484385 8.46386176 13.39778973 9.60244728 14.1875 10.75 C14.61208496 11.35851807 15.03666992 11.96703613 15.47412109 12.59399414 C27.02639185 29.55662917 27.02639185 29.55662917 26.25 39.375 C25.0625 41.3125 25.0625 41.3125 23.25 42.375 C20.52538761 42.63406151 18.80184258 42.66863052 16.36328125 41.37109375 C6.66316914 32.97555204 -4.00901598 18.2109653 -4.9921875 5.16015625 C-4.65865092 1.32448559 -3.80073964 0.51828268 0 0 Z " fill="#F8F8F8" transform="translate(111.75,61.625)"/>
<path d="M0 0 C0.33 0 0.66 0 1 0 C1 16.5 1 33 1 50 C-5.27 50 -11.54 50 -18 50 C-18.71513475 41.53757207 -17.22747848 37.57133498 -12 31 C-5.47347349 22.64242022 -3.70330873 14.18439234 -1.6484375 3.84375 C-1 1 -1 1 0 0 Z " fill="#040404" transform="translate(90,57)"/>
<path d="M0 0 C0.33 0 0.66 0 1 0 C1.08636719 0.71542969 1.17273437 1.43085937 1.26171875 2.16796875 C3.04907536 14.8434427 7.11842541 24.66944595 15.109375 34.5390625 C18.97548947 39.57140158 18 41.90846262 18 49 C11.73 49 5.46 49 -1 49 C-1.02466642 42.34310173 -1.04284395 35.68622989 -1.05493164 29.02929688 C-1.05996926 26.76334164 -1.06679952 24.49738967 -1.07543945 22.23144531 C-1.08752996 18.97980953 -1.09323392 15.72821661 -1.09765625 12.4765625 C-1.10281754 11.45881744 -1.10797882 10.44107239 -1.11329651 9.39248657 C-1.11337204 8.45166229 -1.11344757 7.51083801 -1.11352539 6.54150391 C-1.115746 5.71099518 -1.11796661 4.88048645 -1.12025452 4.02481079 C-1 2 -1 2 0 0 Z " fill="#040404" transform="translate(34,58)"/>
<path d="M0 0 C3.76110572 0.02155361 5.955079 0.3286021 8.875 2.75 C11.70099819 5.79338267 12.23080242 6.5253452 12.625 10.625 C12.2538702 15.07855765 11.20935726 17.0083821 8.3125 20.375 C4.55330197 22.84533013 0.79711925 22.66656343 -3.52734375 22.03125 C-6.3724989 21.16689907 -8.17878784 19.7009688 -9.87109375 17.25390625 C-11.44535856 13.63083748 -11.59666063 10.20193196 -10.6875 6.375 C-8.25 3.375 -8.25 3.375 -5.6875 1.375 C-4.05531064 -0.25718936 -2.24806873 0.08736889 0 0 Z " fill="#070707" transform="translate(186.6875,44.625)"/>
<path d="M0 0 C4.9145115 0.57335967 6.29902506 1.98652506 9.75 5.4375 C11.36320044 8.66390088 11.33810373 11.9489756 10.75 15.4375 C8.1974805 18.96598284 6.67538426 20.21051895 2.4375 21.25 C1.550625 21.311875 0.66375 21.37375 -0.25 21.4375 C-3.58140897 14.96504829 -6.18674953 9.79767488 -5.25 2.4375 C-3.25 0.4375 -3.25 0.4375 0 0 Z " fill="#F9F9F9" transform="translate(218.25,61.5625)"/>
</svg>
